<?xml version="1.0" encoding="UTF-8" standalone="no"?>
<!DOCTYPE svg PUBLIC "-//W3C//DTD SVG 1.1//EN"
 "http://www.w3.org/Graphics/SVG/1.1/DTD/svg11.dtd">
<!-- Generated by graphviz version 2.40.1 (20161225.0304)
 -->
<!-- Title: dependencies Pages: 1 -->
<svg width="1127pt" height="295pt"
 viewBox="0.00 0.00 1127.00 295.00" xmlns="http://www.w3.org/2000/svg" xmlns:xlink="http://www.w3.org/1999/xlink">
<g id="graph0" class="graph" transform="scale(1 1) rotate(0) translate(4 291)">
<title>dependencies</title>
<polygon fill="#ffffff" stroke="transparent" points="-4,4 -4,-291 1123,-291 1123,4 -4,4"/>
<text text-anchor="start" x="538.5091" y="-42.4" font-family="sans-serif" font-weight="bold" font-size="14.00" fill="#000000">Legend</text>
<polygon fill="#ffffb3" stroke="transparent" points="325.5,-10 325.5,-30 345.5,-30 345.5,-10 325.5,-10"/>
<text text-anchor="start" x="349.129" y="-15.4" font-family="sans-serif" font-size="14.00" fill="#000000"> &#160;Declarations</text>
<polygon fill="#8dd3c7" stroke="transparent" points="438.5,-10 438.5,-30 458.5,-30 458.5,-10 438.5,-10"/>
<text text-anchor="start" x="462.2251" y="-15.4" font-family="sans-serif" font-size="14.00" fill="#000000"> &#160;Module</text>
<polygon fill="#80b1d3" stroke="transparent" points="524.5,-10 524.5,-30 544.5,-30 544.5,-10 524.5,-10"/>
<text text-anchor="start" x="548.2812" y="-15.4" font-family="sans-serif" font-size="14.00" fill="#000000"> &#160;Bootstrap</text>
<polygon fill="#fdb462" stroke="transparent" points="621.5,-10 621.5,-30 641.5,-30 641.5,-10 621.5,-10"/>
<text text-anchor="start" x="645.1732" y="-15.4" font-family="sans-serif" font-size="14.00" fill="#000000"> &#160;Providers</text>
<polygon fill="#fb8072" stroke="transparent" points="717.5,-10 717.5,-30 737.5,-30 737.5,-10 717.5,-10"/>
<text text-anchor="start" x="741.2258" y="-15.4" font-family="sans-serif" font-size="14.00" fill="#000000"> &#160;Exports</text>
<g id="clust1" class="cluster">
<title>cluster_AppModule</title>
<polygon fill="none" stroke="#000000" stroke-dasharray="1,5" points="8,-70 8,-279 298,-279 298,-70 8,-70"/>
</g>
<g id="clust2" class="cluster">
<title>cluster_AppModule_declarations</title>
<polygon fill="none" stroke="#000000" points="168,-78 168,-130 290,-130 290,-78 168,-78"/>
</g>
<g id="clust4" class="cluster">
<title>cluster_AppModule_imports</title>
<polygon fill="none" stroke="#000000" points="16,-78 16,-130 160,-130 160,-78 16,-78"/>
</g>
<g id="clust6" class="cluster">
<title>cluster_AppModule_bootstrap</title>
<polygon fill="none" stroke="#000000" points="96,-219 96,-271 220,-271 220,-219 96,-219"/>
</g>
<g id="clust14" class="cluster">
<title>cluster_HomePageModule</title>
<polygon fill="none" stroke="#000000" stroke-dasharray="1,5" points="595,-146 595,-271 933,-271 933,-146 595,-146"/>
</g>
<g id="clust15" class="cluster">
<title>cluster_HomePageModule_declarations</title>
<polygon fill="none" stroke="#000000" points="831,-154 831,-206 925,-206 925,-154 831,-154"/>
</g>
<g id="clust17" class="cluster">
<title>cluster_HomePageModule_imports</title>
<polygon fill="none" stroke="#000000" points="603,-154 603,-206 823,-206 823,-154 603,-154"/>
</g>
<g id="clust21" class="cluster">
<title>cluster_Ionic4BinarySearchLoginModule</title>
<polygon fill="none" stroke="#000000" stroke-dasharray="1,5" points="306,-70 306,-138 1111,-138 1111,-70 306,-70"/>
</g>
<g id="clust22" class="cluster">
<title>cluster_Ionic4BinarySearchLoginModule_declarations</title>
<polygon fill="none" stroke="#000000" points="568,-78 568,-130 1103,-130 1103,-78 568,-78"/>
</g>
<g id="clust26" class="cluster">
<title>cluster_Ionic4BinarySearchLoginModule_exports</title>
<polygon fill="none" stroke="#000000" points="314,-78 314,-130 560,-130 560,-78 314,-78"/>
</g>
<!-- AppComponent -->
<g id="node1" class="node">
<title>AppComponent</title>
<polygon fill="#ffffb3" stroke="#000000" points="281.9399,-122 176.0601,-122 176.0601,-86 281.9399,-86 281.9399,-122"/>
<text text-anchor="middle" x="229" y="-99.8" font-family="Times,serif" font-size="14.00" fill="#000000">AppComponent</text>
</g>
<!-- AppModule -->
<g id="node2" class="node">
<title>AppModule</title>
<polygon fill="#8dd3c7" stroke="#000000" points="199.6571,-198 196.6571,-202 175.6571,-202 172.6571,-198 116.3429,-198 116.3429,-162 199.6571,-162 199.6571,-198"/>
<text text-anchor="middle" x="158" y="-175.8" font-family="Times,serif" font-size="14.00" fill="#000000">AppModule</text>
</g>
<!-- AppComponent&#45;&gt;AppModule -->
<g id="edge1" class="edge">
<title>AppComponent&#45;&gt;AppModule</title>
<path fill="none" stroke="#000000" d="M188.0544,-122.0109C188.0544,-122.0109 188.0544,-151.855 188.0544,-151.855"/>
<polygon fill="#000000" stroke="#000000" points="184.5544,-151.8549 188.0544,-161.855 191.5544,-151.855 184.5544,-151.8549"/>
</g>
<!-- AppComponent  -->
<g id="node4" class="node">
<title>AppComponent </title>
<polygon fill="#80b1d3" stroke="#000000" points="212.439,-263 103.561,-263 103.561,-227 212.439,-227 212.439,-263"/>
<text text-anchor="middle" x="158" y="-240.8" font-family="Times,serif" font-size="14.00" fill="#000000">AppComponent </text>
</g>
<!-- AppModule&#45;&gt;AppComponent  -->
<g id="edge3" class="edge">
<title>AppModule&#45;&gt;AppComponent </title>
<path fill="none" stroke="#000000" stroke-dasharray="1,5" d="M158,-198.1061C158,-198.1061 158,-216.991 158,-216.991"/>
<polygon fill="#000000" stroke="#000000" points="154.5001,-216.9909 158,-226.991 161.5001,-216.991 154.5001,-216.9909"/>
</g>
<!-- AppRoutingModule -->
<g id="node3" class="node">
<title>AppRoutingModule</title>
<polygon fill="#8dd3c7" stroke="#000000" points="152.2744,-122 149.2744,-126 128.2744,-126 125.2744,-122 23.7256,-122 23.7256,-86 152.2744,-86 152.2744,-122"/>
<text text-anchor="middle" x="88" y="-99.8" font-family="Times,serif" font-size="14.00" fill="#000000">AppRoutingModule</text>
</g>
<!-- AppRoutingModule&#45;&gt;AppModule -->
<g id="edge2" class="edge">
<title>AppRoutingModule&#45;&gt;AppModule</title>
<path fill="none" stroke="#000000" d="M134.2795,-122.0109C134.2795,-122.0109 134.2795,-151.855 134.2795,-151.855"/>
<polygon fill="#000000" stroke="#000000" points="130.7795,-151.8549 134.2795,-161.855 137.7795,-151.855 130.7795,-151.8549"/>
</g>
<!-- HomePage -->
<g id="node5" class="node">
<title>HomePage</title>
<polygon fill="#ffffb3" stroke="#000000" points="916.9248,-198 839.0752,-198 839.0752,-162 916.9248,-162 916.9248,-198"/>
<text text-anchor="middle" x="878" y="-175.8" font-family="Times,serif" font-size="14.00" fill="#000000">HomePage</text>
</g>
<!-- HomePageModule -->
<g id="node6" class="node">
<title>HomePageModule</title>
<polygon fill="#8dd3c7" stroke="#000000" points="849.4734,-263 846.4734,-267 825.4734,-267 822.4734,-263 728.5266,-263 728.5266,-227 849.4734,-227 849.4734,-263"/>
<text text-anchor="middle" x="789" y="-240.8" font-family="Times,serif" font-size="14.00" fill="#000000">HomePageModule</text>
</g>
<!-- HomePage&#45;&gt;HomePageModule -->
<g id="edge4" class="edge">
<title>HomePage&#45;&gt;HomePageModule</title>
<path fill="none" stroke="#000000" d="M844.3875,-198.1061C844.3875,-198.1061 844.3875,-216.991 844.3875,-216.991"/>
<polygon fill="#000000" stroke="#000000" points="840.8875,-216.9909 844.3875,-226.991 847.8875,-216.991 840.8875,-216.9909"/>
</g>
<!-- Ionic4BinarySearchLoginModule -->
<g id="node7" class="node">
<title>Ionic4BinarySearchLoginModule</title>
<polygon fill="#8dd3c7" stroke="#000000" points="815.4482,-198 812.4482,-202 791.4482,-202 788.4482,-198 610.5518,-198 610.5518,-162 815.4482,-162 815.4482,-198"/>
<text text-anchor="middle" x="713" y="-175.8" font-family="Times,serif" font-size="14.00" fill="#000000">Ionic4BinarySearchLoginModule</text>
</g>
<!-- Ionic4BinarySearchLoginModule&#45;&gt;HomePageModule -->
<g id="edge5" class="edge">
<title>Ionic4BinarySearchLoginModule&#45;&gt;HomePageModule</title>
<path fill="none" stroke="#000000" d="M771.9937,-198.1061C771.9937,-198.1061 771.9937,-216.991 771.9937,-216.991"/>
<polygon fill="#000000" stroke="#000000" points="768.4938,-216.9909 771.9937,-226.991 775.4938,-216.991 768.4938,-216.9909"/>
</g>
<!-- Ionic4BinarySearchLoginComponent  -->
<g id="node10" class="node">
<title>Ionic4BinarySearchLoginComponent </title>
<polygon fill="#fb8072" stroke="#000000" points="552.2309,-122 321.7691,-122 321.7691,-86 552.2309,-86 552.2309,-122"/>
<text text-anchor="middle" x="437" y="-99.8" font-family="Times,serif" font-size="14.00" fill="#000000">Ionic4BinarySearchLoginComponent </text>
</g>
<!-- Ionic4BinarySearchLoginModule&#45;&gt;Ionic4BinarySearchLoginComponent  -->
<g id="edge8" class="edge">
<title>Ionic4BinarySearchLoginModule&#45;&gt;Ionic4BinarySearchLoginComponent </title>
<path fill="none" stroke="#000000" stroke-dasharray="5,2" d="M610.2278,-180C531.7571,-180 437,-180 437,-180 437,-180 437,-132.0109 437,-132.0109"/>
<polygon fill="#000000" stroke="#000000" points="440.5001,-132.0109 437,-122.0109 433.5001,-132.011 440.5001,-132.0109"/>
</g>
<!-- Ionic4BinarySearchLoginComponent -->
<g id="node8" class="node">
<title>Ionic4BinarySearchLoginComponent</title>
<polygon fill="#ffffb3" stroke="#000000" points="1095.231,-122 868.769,-122 868.769,-86 1095.231,-86 1095.231,-122"/>
<text text-anchor="middle" x="982" y="-99.8" font-family="Times,serif" font-size="14.00" fill="#000000">Ionic4BinarySearchLoginComponent</text>
</g>
<!-- Ionic4BinarySearchLoginComponent&#45;&gt;Ionic4BinarySearchLoginModule -->
<g id="edge6" class="edge">
<title>Ionic4BinarySearchLoginComponent&#45;&gt;Ionic4BinarySearchLoginModule</title>
<path fill="none" stroke="#000000" d="M892.6732,-122.1097C892.6732,-131.897 892.6732,-142 892.6732,-142 892.6732,-142 747.158,-142 747.158,-142 747.158,-142 747.158,-151.8903 747.158,-151.8903"/>
<polygon fill="#000000" stroke="#000000" points="743.6581,-151.8903 747.158,-161.8903 750.6581,-151.8904 743.6581,-151.8903"/>
</g>
<!-- Ionic4BinarySearchLoginControlsComponent -->
<g id="node9" class="node">
<title>Ionic4BinarySearchLoginControlsComponent</title>
<polygon fill="#ffffb3" stroke="#000000" points="850.4538,-122 575.5462,-122 575.5462,-86 850.4538,-86 850.4538,-122"/>
<text text-anchor="middle" x="713" y="-99.8" font-family="Times,serif" font-size="14.00" fill="#000000">Ionic4BinarySearchLoginControlsComponent</text>
</g>
<!-- Ionic4BinarySearchLoginControlsComponent&#45;&gt;Ionic4BinarySearchLoginModule -->
<g id="edge7" class="edge">
<title>Ionic4BinarySearchLoginControlsComponent&#45;&gt;Ionic4BinarySearchLoginModule</title>
<path fill="none" stroke="#000000" d="M678.842,-122.0109C678.842,-122.0109 678.842,-151.855 678.842,-151.855"/>
<polygon fill="#000000" stroke="#000000" points="675.3421,-151.8549 678.842,-161.855 682.3421,-151.855 675.3421,-151.8549"/>
</g>
</g>
</svg>
