<?xml version="1.0" encoding="UTF-8" standalone="no"?>
<!DOCTYPE svg PUBLIC "-//W3C//DTD SVG 1.1//EN"
 "http://www.w3.org/Graphics/SVG/1.1/DTD/svg11.dtd">
<!-- Generated by graphviz version 2.40.1 (20161225.0304)
 -->
<!-- Title: dependencies Pages: 1 -->
<svg width="575pt" height="284pt"
 viewBox="0.00 0.00 575.00 284.00" xmlns="http://www.w3.org/2000/svg" xmlns:xlink="http://www.w3.org/1999/xlink">
<g id="graph0" class="graph" transform="scale(1 1) rotate(0) translate(4 280)">
<title>dependencies</title>
<polygon fill="#ffffff" stroke="transparent" points="-4,4 -4,-280 571,-280 571,4 -4,4"/>
<text text-anchor="start" x="262.5091" y="-42.4" font-family="sans-serif" font-weight="bold" font-size="14.00" fill="#000000">Legend</text>
<polygon fill="#ffffb3" stroke="transparent" points="49.5,-10 49.5,-30 69.5,-30 69.5,-10 49.5,-10"/>
<text text-anchor="start" x="73.129" y="-15.4" font-family="sans-serif" font-size="14.00" fill="#000000"> &#160;Declarations</text>
<polygon fill="#8dd3c7" stroke="transparent" points="162.5,-10 162.5,-30 182.5,-30 182.5,-10 162.5,-10"/>
<text text-anchor="start" x="186.2251" y="-15.4" font-family="sans-serif" font-size="14.00" fill="#000000"> &#160;Module</text>
<polygon fill="#80b1d3" stroke="transparent" points="248.5,-10 248.5,-30 268.5,-30 268.5,-10 248.5,-10"/>
<text text-anchor="start" x="272.2812" y="-15.4" font-family="sans-serif" font-size="14.00" fill="#000000"> &#160;Bootstrap</text>
<polygon fill="#fdb462" stroke="transparent" points="345.5,-10 345.5,-30 365.5,-30 365.5,-10 345.5,-10"/>
<text text-anchor="start" x="369.1732" y="-15.4" font-family="sans-serif" font-size="14.00" fill="#000000"> &#160;Providers</text>
<polygon fill="#fb8072" stroke="transparent" points="441.5,-10 441.5,-30 461.5,-30 461.5,-10 441.5,-10"/>
<text text-anchor="start" x="465.2258" y="-15.4" font-family="sans-serif" font-size="14.00" fill="#000000"> &#160;Exports</text>
<g id="clust1" class="cluster">
<title>cluster_Ionic4BinarySearchLoginModule</title>
<polygon fill="none" stroke="#000000" stroke-dasharray="1,5" points="8,-70 8,-268 559,-268 559,-70 8,-70"/>
</g>
<g id="clust2" class="cluster">
<title>cluster_Ionic4BinarySearchLoginModule_declarations</title>
<polygon fill="none" stroke="#000000" points="16,-78 16,-130 551,-130 551,-78 16,-78"/>
</g>
<g id="clust6" class="cluster">
<title>cluster_Ionic4BinarySearchLoginModule_exports</title>
<polygon fill="none" stroke="#000000" points="171,-208 171,-260 417,-260 417,-208 171,-208"/>
</g>
<!-- Ionic4BinarySearchLoginComponent -->
<g id="node1" class="node">
<title>Ionic4BinarySearchLoginComponent</title>
<polygon fill="#ffffb3" stroke="#000000" points="543.231,-122 316.769,-122 316.769,-86 543.231,-86 543.231,-122"/>
<text text-anchor="middle" x="430" y="-99.8" font-family="Times,serif" font-size="14.00" fill="#000000">Ionic4BinarySearchLoginComponent</text>
</g>
<!-- Ionic4BinarySearchLoginModule -->
<g id="node3" class="node">
<title>Ionic4BinarySearchLoginModule</title>
<polygon fill="#8dd3c7" stroke="#000000" points="396.4482,-187 393.4482,-191 372.4482,-191 369.4482,-187 191.5518,-187 191.5518,-151 396.4482,-151 396.4482,-187"/>
<text text-anchor="middle" x="294" y="-164.8" font-family="Times,serif" font-size="14.00" fill="#000000">Ionic4BinarySearchLoginModule</text>
</g>
<!-- Ionic4BinarySearchLoginComponent&#45;&gt;Ionic4BinarySearchLoginModule -->
<g id="edge1" class="edge">
<title>Ionic4BinarySearchLoginComponent&#45;&gt;Ionic4BinarySearchLoginModule</title>
<path fill="none" stroke="#000000" d="M356.5544,-122.1061C356.5544,-122.1061 356.5544,-140.991 356.5544,-140.991"/>
<polygon fill="#000000" stroke="#000000" points="353.0544,-140.9909 356.5544,-150.991 360.0544,-140.991 353.0544,-140.9909"/>
</g>
<!-- Ionic4BinarySearchLoginControlsComponent -->
<g id="node2" class="node">
<title>Ionic4BinarySearchLoginControlsComponent</title>
<polygon fill="#ffffb3" stroke="#000000" points="298.4538,-122 23.5462,-122 23.5462,-86 298.4538,-86 298.4538,-122"/>
<text text-anchor="middle" x="161" y="-99.8" font-family="Times,serif" font-size="14.00" fill="#000000">Ionic4BinarySearchLoginControlsComponent</text>
</g>
<!-- Ionic4BinarySearchLoginControlsComponent&#45;&gt;Ionic4BinarySearchLoginModule -->
<g id="edge2" class="edge">
<title>Ionic4BinarySearchLoginControlsComponent&#45;&gt;Ionic4BinarySearchLoginModule</title>
<path fill="none" stroke="#000000" d="M245.0014,-122.1061C245.0014,-122.1061 245.0014,-140.991 245.0014,-140.991"/>
<polygon fill="#000000" stroke="#000000" points="241.5015,-140.9909 245.0014,-150.991 248.5015,-140.991 241.5015,-140.9909"/>
</g>
<!-- Ionic4BinarySearchLoginComponent  -->
<g id="node4" class="node">
<title>Ionic4BinarySearchLoginComponent </title>
<polygon fill="#fb8072" stroke="#000000" points="409.2309,-252 178.7691,-252 178.7691,-216 409.2309,-216 409.2309,-252"/>
<text text-anchor="middle" x="294" y="-229.8" font-family="Times,serif" font-size="14.00" fill="#000000">Ionic4BinarySearchLoginComponent </text>
</g>
<!-- Ionic4BinarySearchLoginModule&#45;&gt;Ionic4BinarySearchLoginComponent  -->
<g id="edge3" class="edge">
<title>Ionic4BinarySearchLoginModule&#45;&gt;Ionic4BinarySearchLoginComponent </title>
<path fill="none" stroke="#000000" stroke-dasharray="5,2" d="M294,-187.1061C294,-187.1061 294,-205.991 294,-205.991"/>
<polygon fill="#000000" stroke="#000000" points="290.5001,-205.9909 294,-215.991 297.5001,-205.991 290.5001,-205.9909"/>
</g>
</g>
</svg>
